<?xml version="1.0" encoding="UTF-8"?>
<svg version="1.1" xmlns="http://www.w3.org/2000/svg" width="426" height="426">
<path d="M0 0 C2.35618329 -0.00407529 4.71236466 -0.00942249 7.06854248 -0.01593018 C13.41151452 -0.02949573 19.75433861 -0.02434995 26.09731293 -0.01479292 C32.0908321 -0.0079185 38.08433839 -0.01319416 44.07785726 -0.0175745 C56.67137916 -0.02609165 69.26483514 -0.01635238 81.85834622 -0.0001734 C92.6210919 0.01322642 103.38374045 0.01089729 114.14648438 -0.00292969 C126.70059489 -0.01905092 139.25464789 -0.02526803 151.80876732 -0.0160929 C158.43391153 -0.01138072 165.05900192 -0.01072019 171.68414307 -0.02070236 C177.91585115 -0.02943773 184.14737776 -0.02323131 190.37906647 -0.00601959 C192.65125478 -0.00208958 194.92345867 -0.00312808 197.19564056 -0.00980759 C226.14663084 -0.08699716 252.58704014 3.95218236 275.9296875 22.38818359 C276.65027344 22.95408203 277.37085938 23.51998047 278.11328125 24.10302734 C298.1642997 40.71449487 307.54568947 67.10782273 309.9296875 92.38818359 C310.06583765 95.68096165 310.06913105 98.9692299 310.06340027 102.26449585 C310.06566583 103.23051653 310.06793138 104.1965372 310.07026559 105.19183123 C310.07657235 108.41403262 310.07577835 111.63619158 310.07495117 114.85839844 C310.07794486 117.17517145 310.08134788 119.49194396 310.08512878 121.80871582 C310.09395472 128.09437685 310.0963064 134.38002427 310.09694457 140.6656909 C310.09765623 144.59900395 310.09979282 148.53231357 310.10244179 152.46562576 C310.11121559 165.49751227 310.11586207 178.52939023 310.11511131 191.5612797 C310.11505138 192.61375875 310.11505138 192.61375875 310.11499023 193.6875 C310.11494935 194.39002072 310.11490847 195.09254143 310.11486635 195.81635065 C310.1144607 207.17831621 310.12401072 218.54024849 310.1381286 229.90220444 C310.15254545 241.59817533 310.15939578 253.29413005 310.15853482 264.99011004 C310.15828085 271.54440019 310.16107571 278.09865272 310.17171288 284.65293503 C310.18145912 290.8269964 310.18142866 297.00098474 310.17419624 303.17504883 C310.17315825 305.42830132 310.17546602 307.68155851 310.1815567 309.93480301 C310.22218794 326.02176111 310.11402461 342.38433929 305.8046875 358.01318359 C305.48818237 359.17901978 305.48818237 359.17901978 305.1652832 360.3684082 C301.54837877 372.89434619 295.58222877 383.64306074 286.9296875 393.38818359 C286.11951172 394.41105469 286.11951172 394.41105469 285.29296875 395.45458984 C270.03044156 414.33873366 244.85506046 423.13086613 221.48703575 425.97087669 C212.23760501 426.93056235 202.89140295 426.67441051 193.60473633 426.6628418 C191.28032265 426.66719688 188.9559104 426.67238267 186.63150024 426.67832947 C180.35643601 426.69164646 174.08143227 426.6923062 167.80635667 426.68976617 C161.88106887 426.68855481 155.95579099 426.69479025 150.03050622 426.70019963 C137.573857 426.71104207 125.11723495 426.70892863 112.66058423 426.70281478 C101.3100946 426.69765117 89.95969092 426.70889226 78.60921828 426.727913 C66.90623032 426.74737145 55.20328286 426.75553328 43.50027865 426.75178975 C36.94936696 426.74998605 30.39853396 426.75252094 23.84763527 426.76650429 C17.68082767 426.77917671 11.5141907 426.77705036 5.34738541 426.7640934 C3.09980522 426.76174825 0.85221266 426.76438709 -1.39535332 426.77271652 C-34.92708243 426.88790534 -65.45645697 420.84522473 -90.4375 397.14208984 C-96.00211802 391.24186256 -100.05687097 384.39150438 -104.0703125 377.38818359 C-104.47121094 376.71271484 -104.87210938 376.03724609 -105.28515625 375.34130859 C-116.09624685 355.71635699 -116.52243354 332.06759501 -116.45849609 310.31787109 C-116.46257138 307.96168781 -116.46791858 305.60550644 -116.47442627 303.24932861 C-116.48799182 296.90635657 -116.48284604 290.56353248 -116.47328901 284.22055817 C-116.46641459 278.227039 -116.47169026 272.23353271 -116.4760706 266.24001384 C-116.48458775 253.64649193 -116.47484848 241.05303596 -116.4586695 228.45952487 C-116.44526967 217.69677919 -116.4475988 206.93413065 -116.46142578 196.17138672 C-116.47754701 183.6172762 -116.48376412 171.0632232 -116.47458899 158.50910378 C-116.46987682 151.88395957 -116.46921628 145.25886917 -116.47919846 138.63372803 C-116.48793382 132.40201994 -116.4817274 126.17049333 -116.46451569 119.93880463 C-116.46058568 117.66661631 -116.46162417 115.39441243 -116.46830368 113.12223053 C-116.54536269 84.22021217 -112.76921645 55.8843319 -93.0703125 33.38818359 C-92.52890625 32.70369141 -91.9875 32.01919922 -91.4296875 31.31396484 C-75.7286261 11.91629433 -50.68139986 3.68583398 -26.81009674 0.66570997 C-17.91157399 -0.23566568 -8.93277414 -0.02625959 0 0 Z " fill="#D8D5CC" transform="translate(116.0703125,-0.38818359375)"/>
<path d="M0 0 C0.64259766 0.16628906 1.28519531 0.33257812 1.94726562 0.50390625 C32.78126327 8.61021527 59.94516128 28.98506777 76.37792969 56.28955078 C92.11055304 83.62737698 98.78102292 117.95492776 90.83666992 149.04418945 C90.26699206 151.04587072 89.64773254 153.02229607 89 155 C88.78569336 155.67482422 88.57138672 156.34964844 88.35058594 157.04492188 C83.58325082 171.7147129 76.45347172 184.82158078 67 197 C65.99819179 198.33197526 64.99754281 199.66482731 64 201 C63.01 200.67 62.02 200.34 61 200 C60.33333333 198.66666667 59.66666667 197.33333333 59 196 C49.7384166 186.1879029 39.27676727 180.11978722 27 175 C26.08734375 174.61070312 25.1746875 174.22140625 24.234375 173.8203125 C-6.74801629 161.5604092 -43.30315235 162.21313303 -75 171 C-75.97646484 171.26852783 -75.97646484 171.26852783 -76.97265625 171.54248047 C-92.94699444 176.06450903 -108.88786931 184.4577633 -119 198 C-119.70885894 199.31138904 -120.39456452 200.63777017 -121 202 C-121.66 202 -122.32 202 -123 202 C-131.02279741 192.59955051 -137.04225828 182.27448487 -142 171 C-142.31984863 170.2790918 -142.63969727 169.55818359 -142.96923828 168.81542969 C-150.01964258 152.64659693 -152.24854686 137.7368118 -152.3125 120.1875 C-152.31822021 118.87628174 -152.32394043 117.56506348 -152.32983398 116.21411133 C-152.27008975 108.27917266 -151.60162983 100.77065872 -150 93 C-149.85506104 92.2582251 -149.71012207 91.5164502 -149.56079102 90.75219727 C-145.49235315 71.23622807 -135.42239195 52.67066038 -122 38 C-121.28094482 37.21061035 -121.28094482 37.21061035 -120.54736328 36.40527344 C-90.39816264 3.82067742 -43.44795338 -11.76320135 0 0 Z " fill="#D7D4CB" transform="translate(216,93)"/>
<path d="M0 0 C0.73123077 -0.01257339 1.46246155 -0.02514679 2.21585083 -0.0381012 C18.81157664 -0.26795434 34.39605133 -0.02219 50.3125 5.2734375 C51.10736816 5.53576172 51.90223633 5.79808594 52.72119141 6.06835938 C74.00415474 13.31473268 91.11779883 24.76037107 107.3125 40.2734375 C108.25222656 41.16546875 109.19195312 42.0575 110.16015625 42.9765625 C112.3125 45.2734375 112.3125 45.2734375 112.3125 47.2734375 C112.9725 47.2734375 113.6325 47.2734375 114.3125 47.2734375 C115.9880949 49.36491746 117.53740191 51.45064263 119.0625 53.6484375 C119.51423584 54.29546631 119.96597168 54.94249512 120.43139648 55.60913086 C121.73504835 57.49062519 123.02523454 59.38070976 124.3125 61.2734375 C125.14201172 62.47033203 125.14201172 62.47033203 125.98828125 63.69140625 C134.54395938 76.92258172 140.51997725 92.79503133 143.3125 108.2734375 C143.57305176 109.70030884 143.57305176 109.70030884 143.83886719 111.15600586 C145.17948841 119.08084566 145.69821275 126.8036273 145.6875 134.8359375 C145.68661377 136.04813965 145.68572754 137.2603418 145.68481445 138.50927734 C145.54655528 149.13909209 144.01557582 159.01940637 141.3125 169.2734375 C141.07402344 170.25957031 140.83554687 171.24570313 140.58984375 172.26171875 C138.71713411 179.29279025 135.46481246 185.74309145 132.3125 192.2734375 C131.88324219 193.24152344 131.45398438 194.20960938 131.01171875 195.20703125 C124.91283788 208.46625013 114.955172 221.26678176 104.3125 231.2734375 C103.6525 231.2734375 102.9925 231.2734375 102.3125 231.2734375 C102.04711426 231.87776611 101.78172852 232.48209473 101.50830078 233.10473633 C100.2608478 235.36711379 99.21661715 236.42304864 97.1796875 237.97265625 C96.54708008 238.45508789 95.91447266 238.93751953 95.26269531 239.43457031 C94.57788086 239.93827148 93.89306641 240.44197266 93.1875 240.9609375 C92.47174805 241.48913086 91.75599609 242.01732422 91.01855469 242.56152344 C60.1147329 264.93735235 23.45091367 273.33520895 -14.265625 267.390625 C-19.52321951 266.36733179 -24.60432157 264.95203423 -29.6875 263.2734375 C-30.4717334 263.02174805 -31.2559668 262.77005859 -32.06396484 262.51074219 C-66.75693907 251.06875318 -93.89883636 225.48286565 -110.59106445 193.46508789 C-125.9736777 162.71698744 -128.60414875 126.15856206 -118.1796875 93.4296875 C-110.15714293 69.62987048 -96.39608613 47.2180664 -76.6875 31.2734375 C-76.0275 31.2734375 -75.3675 31.2734375 -74.6875 31.2734375 C-74.6875 30.6134375 -74.6875 29.9534375 -74.6875 29.2734375 C-73.2097168 28.04003906 -73.2097168 28.04003906 -71.13671875 26.6640625 C-70.38116699 26.15955566 -69.62561523 25.65504883 -68.84716797 25.13525391 C-68.03135254 24.60335449 -67.21553711 24.07145508 -66.375 23.5234375 C-65.54629395 22.97993652 -64.71758789 22.43643555 -63.86376953 21.87646484 C-44.90272135 9.5430824 -22.9564951 0.3597421 0 0 Z M-66.6875 38.2734375 C-67.93273437 39.35625 -67.93273437 39.35625 -69.203125 40.4609375 C-71.72936089 42.69975733 -74.21341707 44.97725685 -76.6875 47.2734375 C-77.29335937 47.81355469 -77.89921875 48.35367188 -78.5234375 48.91015625 C-98.00506747 67.06557197 -110.84611182 96.18087989 -111.80908203 122.61035156 C-112.58159662 157.90547916 -105.90723097 188.43286455 -82.6875 216.2734375 C-82.0275 216.2734375 -81.3675 216.2734375 -80.6875 216.2734375 C-79.64152718 214.7430822 -79.64152718 214.7430822 -78.625 212.7734375 C-71.08173507 200.30395874 -56.90598741 193.18954595 -43.6875 188.2734375 C-42.33978516 187.75136719 -42.33978516 187.75136719 -40.96484375 187.21875 C-27.98421427 182.50847939 -13.4940824 179.64968323 0.3125 179.2734375 C1.06080078 179.25297363 1.80910156 179.23250977 2.58007812 179.21142578 C25.91906967 178.66624857 51.13813096 180.61030474 72.3125 191.2734375 C73.38628906 191.79808594 74.46007812 192.32273437 75.56640625 192.86328125 C86.49272745 198.44672001 95.47270609 205.01374664 102.3125 215.2734375 C111.18763378 212.31505957 117.11219917 197.45846816 121.3125 189.2734375 C125.67750922 180.23163269 128.94846729 171.03044522 131.3125 161.2734375 C131.49055176 160.5719458 131.66860352 159.8704541 131.85205078 159.14770508 C133.5896 151.60978491 133.69791466 144.17204613 133.6875 136.4609375 C133.68695618 135.78046356 133.68641235 135.09998962 133.68585205 134.39889526 C133.62014615 116.44515142 130.76474944 99.67653079 123.3125 83.2734375 C123.0021582 82.58830078 122.69181641 81.90316406 122.37207031 81.19726562 C116.95273444 69.545426 109.85537748 59.83010582 101.3125 50.2734375 C100.466875 49.32597656 99.62125 48.37851563 98.75 47.40234375 C78.3014974 25.84397177 47.74700118 11.92253683 18.109375 11.03515625 C-12.87599844 10.54475609 -42.74872539 17.39450626 -66.6875 38.2734375 Z " fill="#A9A29A" transform="translate(175.6875,78.7265625)"/>
<path d="M0 0 C4.79746728 0.95949346 7.78200757 2.44189272 11.75 5.0625 C12.67643311 5.66976929 12.67643311 5.66976929 13.62158203 6.28930664 C36.38014613 21.49435619 47.18785696 44.5504484 52.59863281 70.64575195 C53.7573088 77.44204914 54.14568024 83.99487474 54.13371277 90.87631226 C54.13597833 91.84233293 54.13824388 92.80835361 54.14057809 93.80364764 C54.14688485 97.02584902 54.14609085 100.24800799 54.14526367 103.47021484 C54.14825736 105.78698785 54.15166038 108.10376037 54.15544128 110.42053223 C54.16426722 116.70619326 54.1666189 122.99184067 54.16725707 129.27750731 C54.16796873 133.21082036 54.17010532 137.14412997 54.17275429 141.07744217 C54.18152809 154.10932867 54.18617457 167.14120664 54.18542381 180.17309611 C54.18538386 180.8747488 54.1853439 181.5764015 54.18530273 182.29931641 C54.18526185 183.00183712 54.18522097 183.70435784 54.18517885 184.42816706 C54.1847732 195.79013261 54.19432322 207.1520649 54.2084411 218.51402085 C54.22285795 230.20999173 54.22970828 241.90594646 54.22884732 253.60192645 C54.22859335 260.15621659 54.23138821 266.71046913 54.24202538 273.26475143 C54.25177162 279.43881281 54.25174116 285.61280115 54.24450874 291.78686523 C54.24347075 294.04011772 54.24577852 296.29337492 54.2518692 298.54661942 C54.29250044 314.63357752 54.18433711 330.9961557 49.875 346.625 C49.66399658 347.40222412 49.45299316 348.17944824 49.2355957 348.98022461 C45.61869127 361.50616259 39.65254127 372.25487715 31 382 C30.45988281 382.68191406 29.91976563 383.36382812 29.36328125 384.06640625 C22.94199915 392.01138241 13.3672902 399.76343012 4 404 C2.68 404 1.36 404 0 404 C0 270.68 0 137.36 0 0 Z " fill="#BDBAB3" transform="translate(372,11)"/>
<path d="M0 0 C7.63750485 6.18274202 12.32747097 12.93382273 16 22 C16.33902344 22.79921875 16.67804688 23.5984375 17.02734375 24.421875 C22.46020522 39.34346687 18.3550767 54.80530377 12 68.6875 C9.93850906 72.10184437 7.97898233 74.35953839 5 77 C4.42378906 77.55558594 3.84757812 78.11117187 3.25390625 78.68359375 C-3.366208 84.87746322 -10.7570062 89.53001726 -20 90 C-20.95648438 90.05027344 -21.91296875 90.10054688 -22.8984375 90.15234375 C-36.25671976 90.54896733 -45.85888558 87.89149842 -56 79 C-61.54690404 73.76766519 -64.96947275 67.95772736 -68 61 C-68.35191406 60.19433594 -68.70382813 59.38867188 -69.06640625 58.55859375 C-74.04467803 44.91521292 -72.83027092 29.91821731 -66.875 16.8125 C-60.71501286 5.36985721 -50.21126396 -3.9690182 -37.75 -7.75 C-23.92664218 -11.1916568 -11.67645599 -7.87869285 0 0 Z " fill="#A9A29A" transform="translate(213,144)"/>
<path d="M0 0 C17.49 0 34.98 0 53 0 C53 35.31 53 70.62 53 107 C35.51 107 18.02 107 0 107 C0 71.69 0 36.38 0 0 Z " fill="#F38E01" transform="translate(373,213)"/>
<path d="M0 0 C17.49 0 34.98 0 53 0 C53 34.65 53 69.3 53 105 C35.51 105 18.02 105 0 105 C0 70.35 0 35.7 0 0 Z " fill="#56BFEF" transform="translate(373,107)"/>
<path d="M0 0 C17.49 0 34.98 0 53 0 C53 26.66021387 48.19750639 52.55543311 30 73 C29.42507813 73.70511719 28.85015625 74.41023438 28.2578125 75.13671875 C18.3578917 87.1124294 18.3578917 87.1124294 11.87109375 88.43359375 C9.9375 88.4375 9.9375 88.4375 7 88 C7 88.99 7 89.98 7 91 C4.35261084 92.4606285 3.10551666 93 0 93 C0 62.31 0 31.62 0 0 Z " fill="#48CB5E" transform="translate(373,320)"/>
<path d="M0 0 C2.475 0.495 2.475 0.495 5 1 C4.125 4.875 4.125 4.875 3 6 C2.91017131 8.69793937 2.88506657 11.37009694 2.90234375 14.06811523 C2.90380402 14.91360931 2.90526428 15.75910339 2.9067688 16.63021851 C2.91058435 18.4723665 2.91671084 20.31451079 2.92483521 22.15664482 C2.9375424 25.0683096 2.94409994 27.9799291 2.94897461 30.89161682 C2.96238288 38.12478969 2.98657721 45.35791968 3.01037598 52.59106445 C3.03006234 58.69715694 3.04572263 64.80323354 3.05593872 70.90934944 C3.06244533 73.78443863 3.07495468 76.65946304 3.08764648 79.53453064 C3.09127785 81.29051659 3.09462973 83.04650314 3.09765625 84.80249023 C3.10282257 85.60724289 3.10798889 86.41199554 3.11331177 87.24113464 C3.11384348 92.77231304 3.11384348 92.77231304 2 95 C18.83 95 35.66 95 53 95 C53 95.33 53 95.66 53 96 C35.84 96 18.68 96 1 96 C1 130.65 1 165.3 1 201 C18.49 201 35.98 201 54 201 C54 201.33 54 201.66 54 202 C36.51 202 19.02 202 1 202 C1 268 1 334 1 402 C2.32 401.34 3.64 400.68 5 400 C5.99 400 6.98 400 8 400 C8 399.01 8 398.02 8 397 C9.65 397 11.3 397 13 397 C10.24800963 399.95584151 7.62469707 402.18765147 4 404 C2.68 404 1.36 404 0 404 C0 270.68 0 137.36 0 0 Z " fill="#9BB7BA" transform="translate(372,11)"/>
<path d="M0 0 C17.49 0 34.98 0 53 0 C53 0.66 53 1.32 53 2 C52.00419922 2.09087891 52.00419922 2.09087891 50.98828125 2.18359375 C50.10527344 2.26738281 49.22226562 2.35117188 48.3125 2.4375 C47.00732422 2.55931641 47.00732422 2.55931641 45.67578125 2.68359375 C43.04137957 2.95087735 43.04137957 2.95087735 40.65527344 3.51367188 C37.98068608 4.00353745 35.55573157 4.11400338 32.83984375 4.09765625 C31.88142578 4.09443359 30.92300781 4.09121094 29.93554688 4.08789062 C28.94619141 4.07951172 27.95683594 4.07113281 26.9375 4.0625 C25.94427734 4.05798828 24.95105469 4.05347656 23.92773438 4.04882812 C22.08323973 4.04013354 20.23875277 4.02937983 18.39428711 4.01586914 C16.26289832 4.00174247 14.1314356 4 12 4 C11.34 5.65 10.68 7.3 10 9 C9.67 8.34 9.34 7.68 9 7 C7.02 7.33 5.04 7.66 3 8 C2.03652121 10.67632996 2.039016 12.26153162 2.46556091 15.1207428 C3.04143428 19.30075316 3.13343202 23.29594784 3.11352539 27.50561523 C3.11367142 28.32593735 3.11381744 29.14625946 3.1139679 29.99143982 C3.11327584 32.68051881 3.10551679 35.36952698 3.09765625 38.05859375 C3.09578956 39.93188947 3.09436684 41.80518567 3.09336853 43.67848206 C3.08956315 48.59228886 3.07974988 53.50606578 3.06866455 58.41986084 C3.05840776 63.44071041 3.05386179 68.46156484 3.04882812 73.48242188 C3.03812574 83.32162766 3.02107322 93.16081134 3 103 C6.6242788 104.31037111 9.77163404 105.25038404 13.62841797 105.31884766 C14.91907669 105.34865219 14.91907669 105.34865219 16.23580933 105.37905884 C17.14541412 105.39061005 18.05501892 105.40216125 18.9921875 105.4140625 C20.41109787 105.44311172 20.41109787 105.44311172 21.8586731 105.4727478 C24.86402522 105.53227049 27.86941621 105.57881946 30.875 105.625 C32.91928704 105.66320492 34.96355842 105.70225811 37.0078125 105.7421875 C42.0050803 105.83794954 47.00242342 105.92208114 52 106 C52 106.33 52 106.66 52 107 C34.84 107 17.68 107 0 107 C0 71.69 0 36.38 0 0 Z " fill="#B77D12" transform="translate(373,213)"/>
<path d="M0 0 C17.16 0 34.32 0 52 0 C52 0.66 52 1.32 52 2 C44.22550675 2.91850553 36.50863975 3.10942263 28.6875 3.125 C27.27380127 3.13176758 27.27380127 3.13176758 25.83154297 3.13867188 C21.81528978 3.13013725 17.92734682 3.0679755 13.95703125 2.4296875 C11.07663308 1.72368996 11.07663308 1.72368996 9 3 C7.66666667 2.66666667 6.33333333 2.33333333 5 2 C4.01 2.495 4.01 2.495 3 3 C3 36.33 3 69.66 3 104 C3.99 104.33 4.98 104.66 6 105 C4.02 105 2.04 105 0 105 C0 70.35 0 35.7 0 0 Z " fill="#4D98B9" transform="translate(373,107)"/>
<path d="M0 0 C17.16 0 34.32 0 52 0 C52 0.33 52 0.66 52 1 C51.40309357 1.00808685 50.80618713 1.01617371 50.19119263 1.02450562 C43.9945903 1.11037197 37.79831452 1.20986693 31.60205078 1.31738281 C29.28765331 1.35573401 26.97319498 1.3905759 24.65869141 1.421875 C21.33734336 1.4673924 18.01641659 1.52540843 14.6953125 1.5859375 C13.65569366 1.59748871 12.61607483 1.60903992 11.54495239 1.62094116 C10.58410736 1.64081085 9.62326233 1.66068054 8.63330078 1.68115234 C7.36089035 1.70113785 7.36089035 1.70113785 6.06277466 1.7215271 C3.77813881 1.81776158 3.77813881 1.81776158 2 4 C1.70683232 6.01745179 1.70683232 6.01745179 1.76953125 8.31640625 C1.77146484 9.16267578 1.77339844 10.00894531 1.77539062 10.88085938 C1.78763672 11.76580078 1.79988281 12.65074219 1.8125 13.5625 C1.81314453 14.45130859 1.81378906 15.34011719 1.81445312 16.25585938 C1.46617246 20.45633191 1.46617246 20.45633191 3 24 C3.09904127 25.81454277 3.12799198 27.63295216 3.12939453 29.45019531 C3.13254669 30.61520569 3.13569885 31.78021606 3.13894653 32.98052979 C3.1369223 34.25023621 3.13489807 35.51994263 3.1328125 36.828125 C3.13376923 38.12441833 3.13472595 39.42071167 3.13571167 40.75628662 C3.13718903 43.50697006 3.13503428 46.2576211 3.13037109 49.00830078 C3.1246962 52.52663402 3.12793827 56.0448906 3.13394356 59.56322098 C3.13843947 62.92236169 3.13528441 66.28148212 3.1328125 69.640625 C3.13483673 70.9022345 3.13686096 72.16384399 3.13894653 73.46368408 C3.13579437 74.6413031 3.13264221 75.81892212 3.12939453 77.03222656 C3.12820114 78.58324066 3.12820114 78.58324066 3.12698364 80.16558838 C3 83 3 83 2.43331909 85.72845459 C1.90136871 88.51704496 2.51604681 89.64313316 4 92 C2.02 92.495 2.02 92.495 0 93 C0 62.31 0 31.62 0 0 Z " fill="#44A64C" transform="translate(373,320)"/>
<path d="M0 0 C0.33 0 0.66 0 1 0 C1 65.67 1 131.34 1 199 C2.98 198.01 2.98 198.01 5 197 C5.99 197 6.98 197 8 197 C8 196.01 8 195.02 8 194 C9.65 194 11.3 194 13 194 C10.24800963 196.95584151 7.62469707 199.18765147 4 201 C2.68 201 1.36 201 0 201 C0 134.67 0 68.34 0 0 Z " fill="#AFB678" transform="translate(372,214)"/>
<path d="M0 0 C17.49 0 34.98 0 53 0 C53 0.66 53 1.32 53 2 C52.00419922 2.09087891 52.00419922 2.09087891 50.98828125 2.18359375 C50.10527344 2.26738281 49.22226562 2.35117188 48.3125 2.4375 C47.00732422 2.55931641 47.00732422 2.55931641 45.67578125 2.68359375 C43.04137957 2.95087735 43.04137957 2.95087735 40.65527344 3.51367188 C37.98068608 4.00353745 35.55573157 4.11400338 32.83984375 4.09765625 C31.88142578 4.09443359 30.92300781 4.09121094 29.93554688 4.08789062 C28.94619141 4.07951172 27.95683594 4.07113281 26.9375 4.0625 C25.94427734 4.05798828 24.95105469 4.05347656 23.92773438 4.04882812 C22.08323973 4.04013354 20.23875277 4.02937983 18.39428711 4.01586914 C16.26289832 4.00174247 14.1314356 4 12 4 C11.34 5.65 10.68 7.3 10 9 C9.67 8.34 9.34 7.68 9 7 C7.02 7.33 5.04 7.66 3 8 C2.67 8.99 2.34 9.98 2 11 C1.34 11 0.68 11 0 11 C0 7.37 0 3.74 0 0 Z " fill="#A77823" transform="translate(373,213)"/>
<path d="M0 0 C1.32 0.33 2.64 0.66 4 1 C3.125 4.875 3.125 4.875 2 6 C1.91549256 8.69804393 1.89568271 11.37020203 1.91821289 14.06811523 C1.92127945 14.91360931 1.92434601 15.75910339 1.92750549 16.63021851 C1.9346779 18.47237011 1.94407678 20.31451405 1.95540047 22.15664482 C1.97271401 25.06830729 1.98306522 27.97991546 1.99131775 30.89161682 C2.0158415 39.17234443 2.05139828 47.45299899 2.09594727 55.73364258 C2.12267272 60.7922066 2.13975357 65.8507281 2.15081596 70.90934944 C2.15704204 72.84193556 2.16706743 74.77451318 2.18089485 76.70705986 C2.20002876 79.40559201 2.20699562 82.10389958 2.21118164 84.80249023 C2.21994324 85.60724289 2.22870483 86.41199554 2.23773193 87.24113464 C2.22789562 92.77210438 2.22789562 92.77210438 0 95 C0 63.65 0 32.3 0 0 Z " fill="#9C9993" transform="translate(373,11)"/>
<path d="M0 0 C0.99 0.33 1.98 0.66 3 1 C-6.75049245 12.15889691 -6.75049245 12.15889691 -12 16 C-12.66 16 -13.32 16 -14 16 C-13.75 14.1875 -13.75 14.1875 -13 12 C-12.319375 11.54625 -11.63875 11.0925 -10.9375 10.625 C-10.298125 10.08875 -9.65875 9.5525 -9 9 C-8.66602213 5.87413125 -8.66602213 5.87413125 -9 3 C-6 2 -6 2 -3 3 C-2.01 2.01 -1.02 1.02 0 0 Z " fill="#6CD87D" transform="translate(402,390)"/>
<path d="M0 0 C3.96 0 7.92 0 12 0 C11.01 2.31 10.02 4.62 9 7 C8.67 6.34 8.34 5.68 8 5 C5.06556598 5.26656572 5.06556598 5.26656572 2 6 C1.34 6.99 0.68 7.98 0 9 C0 6.03 0 3.06 0 0 Z " fill="#C17102" transform="translate(374,215)"/>
<path d="M0 0 C0 3 0 3 -1.2421875 4.60546875 C-1.78101562 5.12753906 -2.31984375 5.64960938 -2.875 6.1875 C-3.40867187 6.71730469 -3.94234375 7.24710938 -4.4921875 7.79296875 C-6 9 -6 9 -8 9 C-8.24492187 9.55171875 -8.48984375 10.1034375 -8.7421875 10.671875 C-10.25738114 13.47639491 -12.11084126 15.78103123 -14.125 18.25 C-14.84945313 19.14203125 -15.57390625 20.0340625 -16.3203125 20.953125 C-16.87460937 21.62859375 -17.42890625 22.3040625 -18 23 C-18 15.92773808 -8.80842981 7.95413981 -4 3 C-2.68729558 1.97307017 -1.35881791 0.96508636 0 0 Z " fill="#E6E5DD" transform="translate(34,22)"/>
<path d="M0 0 C0 3.86624965 -1.34497154 5.46660609 -3.4375 8.6875 C-4.07558594 9.68136719 -4.71367187 10.67523438 -5.37109375 11.69921875 C-5.90863281 12.45847656 -6.44617188 13.21773438 -7 14 C-7.33 14 -7.66 14 -8 14 C-8 12.35 -8 10.7 -8 9 C-7.01 9 -6.02 9 -5 9 C-5.103125 8.071875 -5.20625 7.14375 -5.3125 6.1875 C-5.209375 5.135625 -5.10625 4.08375 -5 3 C-2.5 1.125 -2.5 1.125 0 0 Z " fill="#76DE8B" transform="translate(413,376)"/>
<path d="M0 0 C1.31534494 3.65857532 0.65468309 6.08026481 -0.4375 9.75 C-0.86869141 11.22726562 -0.86869141 11.22726562 -1.30859375 12.734375 C-1.53675781 13.48203125 -1.76492188 14.2296875 -2 15 C-2.33 15 -2.66 15 -3 15 C-3.55353075 4.44191344 -3.55353075 4.44191344 0 0 Z " fill="#7BDD8C" transform="translate(422,349)"/>
<path d="M0 0 C4.00647751 1.3354925 4.75744636 3.52765887 7 7 C7.66 7.33 8.32 7.66 9 8 C8.67 9.32 8.34 10.64 8 12 C6.66081194 10.37982158 5.3288031 8.75370657 4 7.125 C3.2575 6.22007812 2.515 5.31515625 1.75 4.3828125 C0 2 0 2 0 0 Z " fill="#E2E1DB" transform="translate(18,385)"/>
<path d="M0 0 C0.66 0.33 1.32 0.66 2 1 C1.54917531 2.46067199 1.08906463 3.91848032 0.625 5.375 C0.36976563 6.18710937 0.11453125 6.99921875 -0.1484375 7.8359375 C-1 10 -1 10 -3 12 C-4.125 6.25 -4.125 6.25 -3 4 C-2.01 4 -1.02 4 0 4 C0 2.68 0 1.36 0 0 Z " fill="#7ADD8A" transform="translate(417,364)"/>
<path d="M0 0 C1.65 0 3.3 0 5 0 C2.22719294 3.08089673 -0.06326356 4.68775452 -4 6 C-3.67 5.01 -3.34 4.02 -3 3 C-2.01 3 -1.02 3 0 3 C0 2.01 0 1.02 0 0 Z " fill="#6BC57D" transform="translate(380,408)"/>
<path d="M0 0 C1.485 0.99 1.485 0.99 3 2 C3.1875 5.125 3.1875 5.125 3 8 C2.01 8.495 2.01 8.495 1 9 C0.67 6.03 0.34 3.06 0 0 Z " fill="#E3E2DD" transform="translate(2,344)"/>
<path d="M0 0 C2.04119788 1.61594832 4.04072937 3.2856382 6 5 C6 5.66 6 6.32 6 7 C5.01 7.33 4.02 7.66 3 8 C0 2.25 0 2.25 0 0 Z " fill="#CECDC8" transform="translate(400,31)"/>
<path d="M0 0 C4.455 2.97 4.455 2.97 9 6 C8.01 6.495 8.01 6.495 7 7 C2.96794098 5.08477197 2.07324061 4.14648122 0 0 Z " fill="#CAC9C5" transform="translate(383,16)"/>
</svg>
